HIERARCHY
ROOT SpineBase
{
  OFFSET 0.000000 0.000000 0.000000
  CHANNELS 6 Xposition Yposition Zposition Zrotation Xrotation Yrotation
  JOINT SpineMid
  {
    OFFSET 0.000000 31.954692 0.000000
    CHANNELS 3 Zrotation Xrotation Yrotation
    JOINT SpineShoulder
    {
      OFFSET 0.111323 23.681228 -0.843925
      CHANNELS 3 Zrotation Xrotation Yrotation
      JOINT Neck
      {
        OFFSET 0.088010 7.825342 -0.674651
        CHANNELS 3 Zrotation Xrotation Yrotation
        JOINT Head
        {
          OFFSET -5.184731 14.233521 0.348576
          CHANNELS 3 Zrotation Xrotation Yrotation
          End Site
          {
            OFFSET 0 0 0
          }
        }
      }
      JOINT ShoulderLeft
      {
        OFFSET -16.375480 -6.670885 7.700839
        CHANNELS 3 Zrotation Xrotation Yrotation
        JOINT ElbowLeft
        {
          OFFSET -0.945886 -28.525527 3.137506
          CHANNELS 3 Zrotation Xrotation Yrotation
          JOINT WristLeft
          {
            OFFSET -0.540953 -22.609881 -3.627948
            CHANNELS 3 Zrotation Xrotation Yrotation
            JOINT HandLeft
            {
              OFFSET 0.547792 -5.619474 -1.739088
              CHANNELS 3 Zrotation Xrotation Yrotation
              JOINT HandTipLeft
              {
                OFFSET 0.993271 -7.187054 -2.277079
                CHANNELS 3 Zrotation Xrotation Yrotation
                End Site
                {
                  OFFSET 0 0 0
                }
              }
              JOINT ThumbLeft
              {
                OFFSET -2.526243 -2.299217 -2.677483
                CHANNELS 3 Zrotation Xrotation Yrotation
                End Site
                {
                  OFFSET 0 0 0
                }
              }
            }
          }
        }
      }
      JOINT ShoulderRight
      {
        OFFSET 14.386957 -4.015904 -9.406794
        CHANNELS 3 Zrotation Xrotation Yrotation
        JOINT ElbowRight
        {
          OFFSET 6.721206 -24.778668 -3.183698
          CHANNELS 3 Zrotation Xrotation Yrotation
          JOINT WristRight
          {
            OFFSET -1.086320 -25.529149 -6.130404
            CHANNELS 3 Zrotation Xrotation Yrotation
            JOINT HandRight
            {
              OFFSET -1.696671 -6.314651 -0.381348
              CHANNELS 3 Zrotation Xrotation Yrotation
              JOINT HandTipRight
              {
                OFFSET -0.405511 -7.557157 -0.295881
                CHANNELS 3 Zrotation Xrotation Yrotation
                End Site
                {
                  OFFSET 0 0 0
                }
              }
              JOINT ThumbRight
              {
                OFFSET 2.461284 -0.984215 -2.313458
                CHANNELS 3 Zrotation Xrotation Yrotation
                End Site
                {
                  OFFSET 0 0 0
                }
              }
            }
          }
        }
      }
    }
  }
  JOINT HipLeft
  {
    OFFSET -6.530152 -0.052884 -0.412952
    CHANNELS 3 Zrotation Xrotation Yrotation
    JOINT KneeLeft
    {
      OFFSET 3.800595 -35.014364 4.202917
      CHANNELS 3 Zrotation Xrotation Yrotation
      JOINT AnkleLeft
      {
        OFFSET 9.984065 -37.520028 7.534364
        CHANNELS 3 Zrotation Xrotation Yrotation
        JOINT FootLeft
        {
          OFFSET 2.492862 -7.771107 -7.755122
          CHANNELS 3 Zrotation Xrotation Yrotation
          End Site
          {
            OFFSET 0 0 0
          }
        }
      }
    }
  }
  JOINT HipRight
  {
    OFFSET 7.038960 1.700934 -6.892317
    CHANNELS 3 Zrotation Xrotation Yrotation
    JOINT KneeRight
    {
      OFFSET 8.898765 -30.184098 -3.353471
      CHANNELS 3 Zrotation Xrotation Yrotation
      JOINT AnkleRight
      {
        OFFSET 2.542642 -41.313056 14.157836
        CHANNELS 3 Zrotation Xrotation Yrotation
        JOINT FootRight
        {
          OFFSET -4.385627 -7.943866 -2.205245
          CHANNELS 3 Zrotation Xrotation Yrotation
          End Site
          {
            OFFSET 0 0 0
          }
        }
      }
    }
  }
}
MOTION
Frames: 9
Frame Time: 0.033333
-22.829366 81.906835 348.090435 -0.000000 0.000000 25.524868 -0.000000 0.000000 -25.524868 -0.000000 0.000000 0.000000 -0.000000 0.000000 0.000000 0.000000 0.000000 0.000000 -0.000000 0.000000 0.000000 -0.000000 0.000000 0.000000 -0.000000 0.000000 0.000000 -0.000000 0.000000 0.000000 0.000000 0.000000 0.000000 0.000000 0.000000 0.000000 -0.000000 0.000000 0.000000 -0.000000 0.000000 0.000000 -0.000000 0.000000 0.000000 -0.000000 0.000000 0.000000 0.000000 0.000000 0.000000 0.000000 0.000000 0.000000 -0.000000 0.000000 -25.524868 -0.000000 0.000000 0.000000 -0.000000 0.000000 0.000000 0.000000 0.000000 0.000000 -0.000000 0.000000 -25.524868 -0.000000 0.000000 0.000000 -0.000000 0.000000 0.000000 0.000000 0.000000 0.000000
-22.830359 81.891349 348.053169 -0.052354 -0.045776 25.517236 0.066967 0.018757 -25.517268 -0.000000 0.000000 0.000000 -0.000000 0.000000 0.000000 0.000000 0.000000 0.000000 -0.000000 0.000000 0.000000 -0.000000 0.000000 0.000000 0.127770 -0.828619 -0.119649 -0.683450 -0.619165 0.099008 0.000000 0.000000 0.000000 0.000000 0.000000 0.000000 -0.000000 0.000000 0.000000 -0.000000 0.000000 0.000000 -0.000000 0.000000 0.000000 -1.347159 0.147197 0.046547 0.000000 0.000000 0.000000 0.000000 0.000000 0.000000 0.066967 0.018757 -25.517268 -0.000000 0.000000 0.000000 -0.885996 0.349755 0.998502 0.000000 0.000000 0.000000 0.066967 0.018757 -25.517268 -0.000000 0.000000 0.000000 0.851224 1.396347 -1.018315 0.000000 0.000000 0.000000
-22.820002 81.881197 348.005327 -0.085704 -0.071928 25.530020 0.108336 0.027968 -25.530100 -0.000000 0.000000 0.000000 -0.000000 0.000000 0.000000 0.000000 0.000000 0.000000 -0.000000 0.000000 0.000000 -0.000000 0.000000 0.000000 0.236828 -1.575505 -0.224537 -1.212973 -1.062645 0.181805 0.000000 0.000000 0.000000 0.000000 0.000000 0.000000 -0.000000 0.000000 0.000000 -0.000000 0.000000 0.000000 -0.000000 0.000000 0.000000 -2.588238 0.298048 0.091972 0.000000 0.000000 0.000000 0.000000 0.000000 0.000000 0.108336 0.027968 -25.530100 -0.000000 0.000000 0.000000 -1.513427 0.575435 1.701153 0.000000 0.000000 0.000000 0.108336 0.027968 -25.530100 -0.000000 0.000000 0.000000 1.439832 2.354409 -1.731313 0.000000 0.000000 0.000000
-22.798293 81.876379 347.946907 -0.100076 -0.078480 25.563419 0.124144 0.027614 -25.563517 -0.000000 0.000000 0.000000 -0.000000 0.000000 0.000000 0.000000 0.000000 0.000000 -0.000000 0.000000 0.000000 -0.000000 0.000000 0.000000 0.325691 -2.228502 -0.313522 -1.574566 -1.308278 0.246032 0.000000 0.000000 0.000000 0.000000 0.000000 0.000000 -0.000000 0.000000 0.000000 -0.000000 0.000000 0.000000 -0.000000 0.000000 0.000000 -3.684652 0.449496 0.134399 0.000000 0.000000 0.000000 0.000000 0.000000 0.000000 0.124144 0.027614 -25.563517 -0.000000 0.000000 0.000000 -1.882234 0.688202 2.108839 0.000000 0.000000 0.000000 0.124144 0.027614 -25.563517 -0.511251 -0.666883 -0.218848 2.262265 3.579572 -1.948373 0.000000 0.000000 0.000000
-22.765234 81.876896 347.877910 -0.095479 -0.065441 25.617450 0.114388 0.017726 -25.617522 -0.000000 0.000000 0.000000 -0.000000 0.000000 0.000000 0.000000 0.000000 0.000000 -0.000000 0.000000 0.000000 -0.000000 0.000000 0.000000 0.393168 -2.776899 -0.385657 -1.758715 -1.341093 0.288910 0.000000 0.000000 0.000000 0.000000 0.000000 0.000000 -0.000000 0.000000 0.000000 -0.000000 0.000000 0.000000 -0.000000 0.000000 0.000000 -4.602035 0.598287 0.171809 0.000000 0.000000 0.000000 0.000000 0.000000 0.000000 0.114388 0.017726 -25.617522 -0.000000 0.000000 0.000000 -1.992926 0.694589 2.222604 0.000000 0.000000 0.000000 0.114388 0.017726 -25.617522 -0.591698 -0.740182 -0.251675 2.397238 3.815043 -2.028542 0.000000 0.000000 0.000000
-22.720824 81.882748 347.798337 -0.071911 -0.032802 25.691946 0.079022 -0.001617 -25.691965 -0.000000 0.000000 0.000000 -0.000000 0.000000 0.000000 0.000000 0.000000 0.000000 -0.000000 0.000000 0.000000 0.175727 0.823744 -0.049114 0.266370 -4.035356 -0.387189 -1.760567 -1.153978 0.307238 0.000000 0.000000 0.000000 0.000000 0.000000 0.000000 -0.000000 0.000000 0.000000 -0.000000 0.000000 0.000000 -0.462237 0.678627 -0.151470 -4.850703 0.052172 0.295780 0.000000 0.000000 0.000000 0.000000 0.000000 0.000000 0.079022 -0.001617 -25.691965 -0.000000 0.000000 0.000000 -1.845902 0.596390 2.042918 0.000000 0.000000 0.000000 0.079022 -0.001617 -25.691965 -0.627125 -0.739574 -0.263986 2.223525 3.590213 -1.822250 0.000000 0.000000 0.000000
-22.707256 81.887234 347.766385 -0.081601 -0.059576 25.756889 0.099382 0.018197 -25.756947 -0.000000 0.000000 0.000000 -0.000000 0.000000 0.000000 0.000000 0.000000 0.000000 -0.000000 0.000000 0.000000 0.153200 0.843695 -0.045844 0.085892 -4.947355 -0.422408 -1.387517 0.956203 0.465903 0.000000 0.000000 0.000000 0.000000 0.000000 0.000000 -0.000000 0.000000 0.000000 -0.719068 -0.580877 0.193931 -0.288675 1.644888 -0.405435 -4.446700 -1.375817 0.346650 0.000000 0.000000 0.000000 0.000000 0.000000 0.000000 0.099382 0.018197 -25.756947 -0.000000 0.000000 0.000000 -1.207612 -0.255113 1.126924 0.000000 0.000000 0.000000 0.099382 0.018197 -25.756947 -0.663113 -0.667858 -0.271771 1.993517 1.841010 -0.783183 0.000000 0.000000 0.000000
-22.612953 81.908071 347.634375 0.015785 0.055162 25.921353 -0.038310 -0.042712 -25.921375 -0.000000 0.000000 0.000000 -0.000000 0.000000 0.000000 0.000000 0.000000 0.000000 -0.000000 0.000000 0.000000 -0.000000 0.000000 0.000000 0.765147 -3.681393 -0.576551 -1.466498 1.093334 0.516805 0.000000 0.000000 0.000000 0.000000 0.000000 0.000000 -0.000000 0.000000 0.000000 -0.740830 -0.638265 0.201147 -0.999079 1.718991 -0.356855 -4.642609 -2.452519 0.326034 0.000000 0.000000 0.000000 0.000000 0.000000 0.000000 -0.038310 -0.042712 -25.921375 -0.000000 0.000000 0.000000 -0.521028 -0.551075 0.342820 0.000000 0.000000 0.000000 -0.038310 -0.042712 -25.921375 -0.767337 -0.837828 -0.319474 1.547768 1.171588 -0.104776 0.000000 0.000000 0.000000
-22.493025 81.939986 347.471843 0.156277 0.221396 26.124046 -0.237797 -0.129967 -26.124618 -0.000000 0.000000 0.000000 -0.000000 0.000000 0.000000 0.000000 0.000000 0.000000 -0.000000 0.000000 0.000000 -0.000000 0.000000 0.000000 0.520988 -3.535612 -0.494419 -0.585890 -0.598377 -0.026203 0.000000 0.000000 0.000000 0.000000 0.000000 0.000000 -0.000000 0.000000 0.000000 -0.000000 0.000000 0.000000 -1.478994 1.875048 -0.388588 -4.116807 -1.572422 0.470286 0.000000 0.000000 0.000000 0.000000 0.000000 0.000000 -0.970135 -0.487642 -26.258418 0.498560 0.644733 0.127048 0.406541 -0.613132 -0.602744 0.000000 0.000000 0.000000 0.187274 0.602763 -25.884025 -0.801403 -1.772765 -0.568002 0.729613 0.935114 0.302365 0.000000 0.000000 0.000000
